<svg width="31" height="32" viewBox="0 0 31 32" fill="none" xmlns="http://www.w3.org/2000/svg">
<path d="M2.4244 11.4635L3.5175 10.7691V10.7543C3.59898 10.208 3.8036 9.68734 4.11589 9.23174C4.42818 8.77614 4.83997 8.39751 5.32012 8.12447L13.4459 3.44095C14.009 3.12138 14.6454 2.95338 15.2928 2.95338C15.9403 2.95338 16.5767 3.12138 17.1398 3.44095C17.8778 3.72487 18.5162 4.21924 18.9759 4.86272C19.4355 5.50621 19.696 6.27048 19.7252 7.06071V20.2395L22.6801 21.9534V7.06072C22.6586 5.74239 22.2604 4.45773 21.5327 3.35825C20.8049 2.25878 19.7779 1.39036 18.5728 0.855431L18.5693 0.861334C17.5614 0.292705 16.423 -0.00410189 15.2658 4.28202e-05C14.1085 0.00418753 12.9723 0.309141 11.9685 0.884976L3.84252 5.56848C2.83315 6.15088 1.99469 6.98848 1.41125 7.99724C0.827806 9.00601 0.5199 10.1505 0.51842 11.3158V12.8966L0.533124 12.8818C1.09961 12.3293 1.73534 11.8525 2.4244 11.4635ZM17.8782 29.4145L16.7553 28.7496C16.227 28.9783 15.6525 29.08 15.0778 29.0466C14.5031 29.0132 13.9442 28.8457 13.4459 28.5575L5.31989 23.874C4.71756 23.5229 4.22543 23.0103 3.8991 22.3941C3.57277 21.778 3.42524 21.0828 3.47319 20.3873C3.38751 19.6467 3.51763 18.8971 3.8479 18.2287C4.17817 17.5604 4.69452 17.0016 5.33483 16.6198L16.7553 10.0599V6.63223L3.87214 14.049C3.29682 14.3591 2.78143 14.7693 2.35021 15.2605C1.73386 15.903 1.25383 16.6635 0.938992 17.4963C0.624157 18.3291 0.481023 19.217 0.518201 20.1065C0.425547 21.366 0.687938 22.6261 1.27557 23.7439C1.8632 24.8617 2.75252 25.7923 3.84252 26.43L11.9685 31.1136C12.9801 31.6944 14.1262 32 15.2927 32C16.4592 32 17.6053 31.6944 18.6169 31.1136L20.0057 30.3157C19.991 30.3009 19.991 30.3009 19.9763 30.3009C19.241 30.0988 18.5356 29.8008 17.8782 29.4145ZM29.1742 7.99731C28.5907 6.98855 27.7523 6.15096 26.7429 5.56856L25.3393 4.75597C25.3393 4.77067 25.354 4.8003 25.354 4.81506C25.5444 5.54833 25.6388 6.30321 25.6349 7.06078V8.3757C26.0927 8.71721 26.4647 9.16076 26.7211 9.67112C26.9776 10.1815 27.1115 10.7446 27.1123 11.3158V20.6829C27.1113 21.3263 26.9416 21.9582 26.6202 22.5156C26.2987 23.0729 25.8367 23.5363 25.2803 23.8593C24.6671 24.3612 23.9194 24.671 23.131 24.7499C22.3425 24.8287 21.5483 24.6731 20.8479 24.3026L9.36819 17.6984L6.39852 19.4123L19.3705 26.8586C20.5549 27.5127 21.9045 27.8067 23.2536 27.7043C24.6027 27.6019 25.8925 27.1077 26.9646 26.2824L26.9644 26.2822C27.9117 25.6862 28.693 24.8603 29.2355 23.8813C29.778 22.9024 30.0641 21.8021 30.0673 20.6829V11.3158C30.0656 10.1505 29.7577 9.00605 29.1742 7.99731Z" fill="#7B3FE4"/>
</svg>
